<svg xmlns="http://www.w3.org/2000/svg" viewBox="0 0 32 32"><path  d="M21.128 23.006C20.374 23.805 17.94 26 14 26c-3.955 0-6.383-2.192-7.132-2.993a.502.502 0 0 1-.038-.634c.49-.692 1.317-1.181 2.61-1.543 1.43-.4 2.23-.98 2.48-1.66.04-.09-.03-.18-.12-.19-.9-.12-1.88-.53-2.29-.72a.228.228 0 0 1-.13-.3c.17-.49.61-1.74.85-2.96.33-1.69-.81-2.99.35-5.02.26-.44.88-1.5 2.42-1.21 1.33-.85 3.96-.46 4.73 1.88.56 1.57-.24 2.91.04 4.35.24 1.22.68 2.47.85 2.96.05.12-.01.25-.13.3-.41.19-1.39.6-2.29.72-.09.01-.16.1-.12.19.25.68 1.05 1.26 2.48 1.66 1.289.36 2.123.859 2.609 1.54a.501.501 0 0 1-.041.636M20 16.5a5.5 5.5 0 0 1 4.295-5.366.496.496 0 0 0 .321-.71c-2.037-3.873-6.123-6.501-10.822-6.422C7.521 4.108 2.262 9.236 2.01 15.505 1.734 22.358 7.208 28 14 28c4.241 0 7.963-2.204 10.096-5.526a.496.496 0 0 0-.264-.734A5.5 5.5 0 0 1 20 16.5m7.5.5H26v1.5a.5.5 0 1 1-1 0V17h-1.5a.5.5 0 1 1 0-1H25v-1.5a.5.5 0 0 1 1 0V16h1.5a.5.5 0 0 1 0 1m-2-5a4.505 4.505 0 0 0-4.5 4.5c0 2.482 2.019 4.5 4.5 4.5 2.482 0 4.5-2.018 4.5-4.5 0-2.481-2.018-4.5-4.5-4.5" fill-rule="evenodd"/></svg>