<?xml version="1.0" encoding="UTF-8" standalone="no"?>
<svg
   xmlns:dc="http://purl.org/dc/elements/1.1/"
   xmlns:cc="http://creativecommons.org/ns#"
   xmlns:rdf="http://www.w3.org/1999/02/22-rdf-syntax-ns#"
   xmlns:svg="http://www.w3.org/2000/svg"
   xmlns="http://www.w3.org/2000/svg"
   xmlns:sodipodi="http://sodipodi.sourceforge.net/DTD/sodipodi-0.dtd"
   xmlns:inkscape="http://www.inkscape.org/namespaces/inkscape"
   inkscape:version="1.0 (4035a4f, 2020-05-01)"
   sodipodi:docname="celebration-dark.svg"
   id="svg1153"
   version="1.1"
   fill="none"
   height="231"
   width="427"
   preserveAspectRatio="xMidYMin">
  <metadata
     id="metadata1159">
    <rdf:RDF>
      <cc:Work
         rdf:about="">
        <dc:format>image/svg+xml</dc:format>
        <dc:type
           rdf:resource="http://purl.org/dc/dcmitype/StillImage" />
      </cc:Work>
    </rdf:RDF>
  </metadata>
  <defs
     id="defs1157" />
  <sodipodi:namedview
     inkscape:current-layer="svg1153"
     inkscape:window-maximized="0"
     inkscape:window-y="23"
     inkscape:window-x="0"
     inkscape:cy="115.5"
     inkscape:cx="213.5"
     inkscape:zoom="1.6674473"
     showgrid="false"
     id="namedview1155"
     inkscape:window-height="959"
     inkscape:window-width="1617"
     inkscape:pageshadow="2"
     inkscape:pageopacity="0"
     guidetolerance="10"
     gridtolerance="10"
     objecttolerance="10"
     borderopacity="1"
     bordercolor="#666666"
     pagecolor="#ffffff" />
  <style
     id="style833">@keyframes rotate-center1{0%{transform:rotate(0deg)}20%{transform:rotate(359deg)}to{transform:rotate(360deg)}}@keyframes rotate-center2{0%{transform:rotate(0deg)}25%{transform:rotate(359deg)}to{transform:rotate(360deg)}}@keyframes rotate-center3{0%{transform:rotate(0deg)}30%{transform:rotate(359deg)}to{transform:rotate(360deg)}}@keyframes rotate-center4{0%{transform:rotate(0deg)}33%{transform:rotate(359deg)}to{transform:rotate(360deg)}}@keyframes rotate-center5{0%{transform:rotate(0deg)}37%{transform:rotate(359deg)}to{transform:rotate(360deg)}}@keyframes rotate-center6{0%{transform:rotate(0deg)}40%{transform:rotate(359deg)}to{transform:rotate(360deg)}}@keyframes rotate-center7{0%{transform:rotate(0deg)}50%{transform:rotate(359deg)}to{transform:rotate(360deg)}}@keyframes scale-up-bottom{0%{-webkit-transform:scale(.25);transform:scale(.25);-webkit-transform-origin:50% 100%;transform-origin:50% 100%}20%{-webkit-transform:scale(1);transform:scale(1);-webkit-transform-origin:50% 100%;transform-origin:50% 100%}}</style>
  <g
     id="g858"
     transform="translate(65 20)"
     class="cloud">
    <path
       id="path835"
       fill="#F3F2F2"
       d="M100.781 49.977s16.173-22.088 24.631-28.887C146.182 4.393 165.904.465 179.542.808c28.789.724 67.381 27.123 80.176 53.165 12.795 26.042 8.514 41.587 8.514 41.587s20.983-1.428 32.901 16.548c11.919 17.977 5.533 43.669 1.538 51.95-2.406 4.986-10.616 11.857-16.462 16.327-3.985 3.047-8.761 4.592-13.776 4.712-37.918.909-206.264 4.824-228.063 3.229-24.589-1.798-30.827-13.426-37.41-21.594-5.35-6.639-12.417-33.682-.249-56.805C18.881 86.804 41.86 82.468 41.86 82.468s2.528-10.262 7.836-18.589c5.308-8.326 12.264-13.072 16.664-15.547 10.522-5.918 34.422 1.645 34.422 1.645z"
       clip-rule="evenodd"
       fill-rule="evenodd" />
    <g
       id="g839"
       filter="url(#filter0_d)">
      <path
         id="path837"
         fill="#fff"
         d="M107.601 72.79s14.86-20.207 22.632-26.428c19.084-15.276 37.205-18.87 49.736-18.556 26.452.662 61.912 24.815 73.668 48.64 11.757 23.826 7.823 38.048 7.823 38.048s19.28-1.307 30.231 15.14 5.083 39.953 1.412 47.529c-2.145 4.427-9.314 10.479-14.645 14.57-3.967 3.044-8.769 4.574-13.767 4.693-36.033.859-189.011 4.39-208.922 2.94-22.593-1.646-28.325-12.284-34.374-19.757-4.916-6.074-11.41-30.815-.228-51.971 11.18-21.155 32.294-25.122 32.294-25.122s2.324-9.388 7.2-17.006c4.878-7.618 11.269-11.96 15.312-14.224 9.668-5.415 31.628 1.504 31.628 1.504z"
         clip-rule="evenodd"
         fill-rule="evenodd" />
    </g>
    <defs
       id="defs856">
      <filter
         color-interpolation-filters="sRGB"
         filterUnits="userSpaceOnUse"
         height="175.923"
         width="287"
         y="26.788"
         x="13"
         id="filter0_d">
        <feFlood
           id="feFlood841"
           result="BackgroundImageFix"
           flood-opacity="0" />
        <feColorMatrix
           id="feColorMatrix843"
           values="0 0 0 0 0 0 0 0 0 0 0 0 0 0 0 0 0 0 127 0"
           in="SourceAlpha" />
        <feOffset
           id="feOffset845"
           dy="1" />
        <feGaussianBlur
           id="feGaussianBlur847"
           stdDeviation="1" />
        <feColorMatrix
           id="feColorMatrix849"
           values="0 0 0 0 0 0 0 0 0 0 0 0 0 0 0 0 0 0 0.08 0" />
        <feBlend
           id="feBlend851"
           result="effect1_dropShadow"
           in2="BackgroundImageFix" />
        <feBlend
           id="feBlend853"
           result="shape"
           in2="effect1_dropShadow"
           in="SourceGraphic" />
      </filter>
    </defs>
  </g>
  <g
     id="g874"
     clip-rule="evenodd"
     fill-rule="evenodd"
     style="animation:scale-up-bottom 5s cubic-bezier(.39,.575,.565,1) infinite both">
    <path
       id="path860"
       style="transform-origin:56px 79px;animation:rotate-center1 5s infinite both"
       fill="#00AC47"
       d="M50.467 69s.014 9.599-1.419 13.814C47.615 87.028 43 90.96 43 90.96s8.334.289 12.224 1.966c3.89 1.676 9.902 7.572 9.902 7.572s-1.668-8.703-.529-12.754c1.14-4.051 6.949-10.081 6.949-10.081s-7.212.228-10.742-1.223C57.274 74.991 50.467 69 50.467 69z" />
    <path
       id="path862"
       style="transform-origin:409px 121px;animation:rotate-center2 5s infinite both"
       fill="#E94232"
       d="M415.604 112.684s-5.77 4.69-9.018 5.866c-3.248 1.177-7.906.264-7.906.264s3.963 5.252 4.885 8.456c.922 3.204.359 9.766.359 9.766s4.41-5.267 7.413-6.544c3.004-1.276 9.517-.653 9.517-.653s-3.717-4.313-4.597-7.185c-.879-2.873-.653-9.97-.653-9.97z" />
    <path
       id="path864"
       style="transform-origin:29px 181px;animation:rotate-center3 5s infinite both"
       fill="#FBB900"
       d="M18.32 176.528s4.438 6.321 5.417 9.775c.98 3.454-.312 8.223-.312 8.223s5.742-3.74 9.135-4.47c3.392-.729 10.158.322 10.158.322s-5.137-4.95-6.24-8.157c-1.102-3.207.027-9.922.027-9.922s-4.75 3.551-7.794 4.26c-3.045.708-10.391-.031-10.391-.031z" />
    <path
       id="path866"
       style="transform-origin:10px 122px;animation:rotate-center4 5s infinite both"
       fill="#E94232"
       d="M3.897 118.757s1.955 5.072 2.062 7.587c.107 2.515-1.502 5.519-1.502 5.519s4.405-1.517 6.775-1.41c2.37.107 6.701 2.019 6.701 2.019s-2.635-4.267-2.863-6.637c-.227-2.369 1.58-6.721 1.58-6.721s-3.715 1.565-5.85 1.506c-2.136-.06-6.903-1.863-6.903-1.863z" />
    <path
       id="path868"
       style="transform-origin:146px 20px;animation:rotate-center5 5s infinite both"
       fill="#FBB900"
       d="M139.921 8.221s1.955 5.072 2.062 7.587c.107 2.515-1.503 5.519-1.503 5.519s4.406-1.517 6.776-1.41c2.369.107 6.701 2.019 6.701 2.019s-2.635-4.267-2.863-6.637c-.227-2.37 1.581-6.721 1.581-6.721s-3.716 1.566-5.852 1.506c-2.135-.06-6.902-1.863-6.902-1.863z" />
    <path
       id="path870"
       style="transform-origin:368px 98px;animation:rotate-center6 5s infinite both"
       fill="#FBB900"
       d="M368.961 91.458s-2.117 5.006-3.787 6.89c-1.67 1.883-4.915 2.926-4.915 2.926s4.223 1.969 5.853 3.692c1.631 1.723 3.418 6.108 3.418 6.108s1.069-4.9 2.551-6.763c1.483-1.862 5.806-3.737 5.806-3.737s-3.761-1.455-5.255-2.982c-1.495-1.526-3.671-6.134-3.671-6.134z" />
    <path
       id="path872"
       style="transform-origin:409px 167px;animation:rotate-center7 5s infinite both"
       fill="#00AC47"
       d="M402.502 177.958s4.923-2.304 7.424-2.586c2.502-.283 5.611 1.114 5.611 1.114s-1.821-4.289-1.88-6.661c-.058-2.371 1.547-6.826 1.547-6.826s-4.072 2.927-6.42 3.319c-2.348.392-6.816-1.107-6.816-1.107s1.821 3.598 1.911 5.732c.089 2.134-1.377 7.015-1.377 7.015z" />
  </g>
  <g
     id="g1151"
     transform="translate(65)"
     class="jump">

      <g jetway-hook-id="B49352B2-2BD4-480B-A529-2AB694CAA7CC" id="Group" transform="translate(88.866755, 65.128375)">
         <path d="M76.9975653,88.9276228 C76.9975653,88.9276228 78.397521,83.5712705 86.0059761,83.5712705 C93.6144312,83.5712705 108.040062,100.492475 91.6666667,132.204515 L90.8753873,133.421868 C90.8753873,133.421868 96.5360779,132.204515 96.8404161,138.169544 C97.0838867,144.134573 90.7536521,143.525896 89.9623727,143.525896 C89.1710934,143.525896 76.6323595,142.612882 81.0756972,116.500664 C81.0756972,116.500664 78.6409916,100.85768 78.4583887,100.431607 C78.3366534,100.066401 76.9975653,88.9276228 76.9975653,88.9276228 Z" jetway-hook-id="81B0ADE5-D913-4C2A-974E-4B3EDC8F73B8" id="Path" fill="#E9D2FD" fill-rule="nonzero"></path>
         <g jetway-hook-id="91AF7A0C-C0BB-4183-9257-677411565BCF" transform="translate(48.085436, 81.562638)" id="Path">
            <path d="M22.7036299,44.0073041 C22.7036299,44.0073041 15.582116,46.2594068 10.5909695,46.0159363 L7.24324923,46.8072156 L6.4519699,74.1976538 L20.3906596,74.1976538 C21.5471448,64.4588313 23.190571,47.9028331 22.7036299,44.0073041 Z" jetway-hook-id="4F4F7C4A-9AC3-4EB5-AD46-85023CA80F4D"></path>
            <path d="M7.30411687,46.8072156 L10.6518371,46.0159363 C15.6429836,46.2594068 22.7644976,44.0073041 22.7644976,44.0073041 C23.2514387,47.8419655 21.5471448,64.3979637 20.5123949,74.1367862 L26.1122178,74.1367862 C27.1469677,68.5978309 28.8512616,59.4068172 31.4685702,45.042054 C36.6423196,17.1646746 31.4685702,7.36498451 31.4685702,7.36498451 C22.0949535,-6.1476317 8.15626383,4.32160248 8.15626383,4.32160248 C8.15626383,4.32160248 1.27822045,36.7031873 1.58255865,44.9203187 C1.76516158,50.6418769 1.03474989,65.5544489 0.547808765,74.1367862 L6.51283754,74.1367862 L7.30411687,46.8072156 Z" jetway-hook-id="FBD3AEBF-536D-4BC8-80EB-2D3EF288141A" fill="#FF63B8" fill-rule="nonzero"></path>
            <path d="M19.6602479,81.3800354 L24.7122621,81.3800354 C24.7122621,81.3800354 25.0774679,79.3714033 26.0513502,74.1367862 L20.4515272,74.1367862 C20.0254537,78.397521 19.6602479,81.3800354 19.6602479,81.3800354 Z" jetway-hook-id="688904F6-124B-4FEF-AA80-C8F39A9B5A5D" fill="#000000" fill-rule="nonzero"></path>
            <path d="M6.33023462,80.5278884 L6.51283754,74.1976538 L0.547808765,74.1976538 C0.365205843,77.9714475 0.182602922,80.5278884 0.182602922,80.5278884 L6.33023462,80.5278884 Z" jetway-hook-id="923DC24B-BB29-43DB-A481-8A49C56BCAB5" fill="#000000" fill-rule="nonzero"></path>
         </g>
         <path d="M67.4413457,67.449304 C66.1631253,62.3259692 60.9285082,62.3259692 60.9285082,62.3259692 C65.9805224,59.3983494 65.0066401,53.4305089 65.0066401,53.4305089 C64.3370961,49.3768814 60.62417,49.2079802 60.62417,49.2079802 C62.3893316,45.9988584 60.0154936,43.3527405 60.0154936,43.3527405 C58.5546702,41.8889305 56.6677734,41.7200294 55.3895529,41.8326302 C56.2416999,37.2722992 53.502656,31.9237629 53.502656,31.9237629 C49.8505976,25.3929186 45.1637893,30.5162534 45.1637893,30.5162534 C44.4942452,26.4063255 39.9900398,24.2106106 39.9900398,24.2106106 C32.9293935,22.8594014 33.7206729,29.5028465 33.7206729,29.5028465 L33.7206729,32.4304664 L32.5033201,32.9371698 L27.5121735,30.3473522 C21.66888,31.6985614 25.1383355,36.8781965 25.1383355,36.8781965 L24.9557326,37.835303 C23.9818504,37.0470977 23.1297034,36.4840939 23.1297034,36.4840939 C15.3995131,39.9184172 22.0340859,45.3232539 22.0340859,45.3232539 C22.0340859,45.3232539 24.4079239,46.22406 26.7208942,43.577942 L26.9643648,44.0283451 L39.8074369,46.674463 L51.1288181,44.4224477 L48.8158477,49.4331817 L52.9548473,78.0337758 C52.9548473,78.0337758 56.9112439,85.6343274 61.3545817,83.7201144 C65.7979194,81.8059014 62.6936698,78.0337758 62.6936698,78.0337758 C69.5717131,75.2187567 67.4413457,67.449304 67.4413457,67.449304 Z" jetway-hook-id="691333E8-9907-4F1E-91B8-EAE2EB511F88" id="Path" fill="#E9D2FD" fill-rule="nonzero"></path>
         <text jetway-hook-id="150436D3-1A5B-40E6-AAFD-19FC45061C01" id="#FBBC04" fill="#000000" font-family="Helvetica" font-size="12" font-weight="normal">
            <tspan x="28.6077911" y="66.6178066">#FBB</tspan>
            <tspan x="28.6077911" y="80.6178066">C04</tspan>
         </text>
         <path d="M24.5296591,45.2855246 C24.5296591,45.2855246 20.8167331,42.9116866 20.4515272,37.4944666 C20.4515272,37.4944666 19.9645861,35.4249668 20.4515272,34.2684816 C20.9384683,33.1119965 22.7036299,32.5641877 23.7383798,34.2684816 C24.7122621,35.9727756 27.5121735,39.8074369 26.9034971,42.668216 C26.2948207,45.5898628 24.5296591,45.2855246 24.5296591,45.2855246 Z" jetway-hook-id="C40B8587-07AE-4EDE-838A-B1878A3028D0" id="Path" fill="#FF63B8" fill-rule="nonzero"></path>
         <g jetway-hook-id="2C992B0A-DE70-4632-B898-3264F8CC6750" transform="translate(6.086764, 43.216025)" fill-rule="nonzero" id="Path">
            <path d="M18.4428951,0.791279327 C18.4428951,0.669544046 18.4428951,0.486941124 18.4428951,0.365205843 L6.51283754,0.365205843 L6.51283754,10.83444 C12.4169987,10.83444 18.4428951,7.42585215 18.4428951,0.791279327 Z" jetway-hook-id="1573BA84-6BB9-4362-84D8-B48EC9B31A69" fill="#000000"></path>
            <path d="M0.547808765,0.365205843 C0.547808765,6.99977866 3.53032315,11.0170429 9.43448429,11.0170429 C9.43448429,11.0170429 6.57370518,10.3474989 6.63457282,10.3474989 L6.57370518,0.608676405 L0.547808765,0.365205843 Z" jetway-hook-id="2E89294A-9002-4D1A-A4C9-3E41531AAF84" fill="#99A0A7"></path>
         </g>
         <path d="M55.4504205,42.7290837 L7.54758743,42.7290837 C7.12151394,42.9116866 6.69544046,43.1551571 6.63457282,43.520363 C6.63457282,43.5812306 6.63457282,43.3377601 6.63457282,43.3986277 C6.63457282,43.6420983 6.63457282,44.1290394 6.63457282,44.37251 L55.5112882,44.3116423 C56.4851704,44.3116423 56.4851704,42.7290837 55.4504205,42.7290837 Z" jetway-hook-id="27899FAC-6038-4512-8189-DF6313CA155A" id="Path" fill="#000000" fill-rule="nonzero"></path>
         <g jetway-hook-id="F0BD836D-21E9-4A3E-BE5D-C2AB78D4908B" transform="translate(24.955733, 57.215582)" id="Path">
            <path d="M27.8165117,70.5455954 C27.8165117,70.5455954 17.2864099,72.1281541 10.164896,66.3457282 C11.4431164,78.7627269 12.8430722,93.3709606 13.5734838,101.162019 L27.3904382,101.162019 C27.938247,91.7884019 28.6686587,74.8063302 27.8165117,70.5455954 Z" jetway-hook-id="F17F3A63-C496-42CD-A6F6-E13DB21322A0"></path>
            <path d="M3.28685259,0.913014608 C3.46945551,0.304338203 3.53032315,0.0608676405 3.53032315,0.0608676405 C3.53032315,0.0608676405 3.40858787,0.365205843 3.28685259,0.913014608 Z" jetway-hook-id="995F7CFD-4E1C-4651-9156-F4E6839250BB"></path>
            <path d="M3.28685259,0.913014608 C3.22598495,1.15648517 3.16511731,1.46082337 3.04338203,1.82602922 C3.10424967,2.2521027 3.10424967,2.67817618 3.16511731,3.10424967 C3.10424967,2.2521027 3.16511731,1.46082337 3.28685259,0.913014608 Z" jetway-hook-id="41F2A447-0267-4710-AAD5-1D93676CBC87" fill="#3BB0E5" fill-rule="nonzero"></path>
            <path d="M14.1664263,10.5909695 L10.2915628,10.5909695 L1.29399828,13.1344477 C0.834268707,17.3083608 0.374539134,22.4605347 0.177512174,28.5909695 C15.0858855,16.9822738 14.1664263,10.5909695 14.1664263,10.5909695 Z" jetway-hook-id="AAC00BBA-03AB-4634-B1EE-54EFA7E806C5" fill="#FF63B8" fill-rule="nonzero"></path>
            <path d="M27.0861,107.370518 L32.8076583,107.370518 C33.1728641,105.301018 33.4772023,103.231518 33.7815405,101.162019 L27.3904382,101.162019 C27.2078353,104.874945 27.0861,107.370518 27.0861,107.370518 Z" jetway-hook-id="E9FAD03D-413D-4A6B-A2ED-384D2DF481EB" fill="#000000" fill-rule="nonzero"></path>
            <path d="M14.1212926,106.640106 C14.1212926,106.640106 13.9386897,104.570606 13.5734838,101.162019 L7.30411687,101.162019 C7.66932271,102.988048 8.03452855,104.814077 8.3997344,106.640106 L14.1212926,106.640106 Z" jetway-hook-id="305A2BC5-21C0-4AB2-BC5E-44B44F8BBF26" fill="#000000" fill-rule="nonzero"></path>
         </g>
         <g jetway-hook-id="8A790E25-438C-4687-BA4F-27D2011C833F" transform="translate(0.000000, 38.955290)" fill-rule="nonzero" id="Path">
            <path d="M61.9023904,49.9114653 C61.6589199,46.6246127 61.3545817,43.3377601 61.0502435,40.1117751 C60.4415671,34.207614 59.7111554,28.3643205 58.4329349,22.5818946 C57.1547145,16.8603364 55.4504205,11.0170429 51.7983621,6.33023462 C51.1288181,5.47808765 50.3375387,4.32160248 49.4853918,3.34772023 C46.8680832,0.304338203 42.9725542,-0.121735281 39.1987605,0.0608676405 C37.4944666,0.121735281 35.6684374,0.243470562 33.9032758,0.608676405 C33.9032758,0.608676405 33.8424081,0.608676405 33.8424081,0.608676405 C33.7206729,0.608676405 33.6598052,0.669544046 33.5380699,0.669544046 C33.4163347,0.669544046 33.355467,0.730411687 33.2337317,0.730411687 C32.8076583,0.791279327 32.3815848,0.913014608 31.9555113,1.03474989 C31.8946436,1.03474989 31.833776,1.09561753 31.7729084,1.09561753 C30.1294821,1.58255865 28.5469234,2.31297034 27.0252324,2.98251439 C22.0340859,5.23461709 17.1646746,7.85192563 12.4169987,10.6518371 C8.03452855,13.2691456 2.92164675,15.582116 1.09561753,20.7558654 C-0.182602922,24.5905268 0.426073484,28.5469234 2.73904382,31.833776 C5.90416113,36.3379814 10.4692342,36.8857902 15.9473218,36.581452 C18.4428951,35.8510403 20.9384683,34.8162904 23.0688358,33.4163347 C27.8165117,30.3729526 30.1903497,26.1122178 32.0163789,20.9384683 C32.3207171,19.9645861 33.9032758,20.3906596 33.5380699,21.3645418 C31.833776,26.3556884 29.459938,31.2859672 24.894865,34.207614 C23.6775122,34.9380257 22.4601594,35.6075697 21.2428066,36.2162461 C26.2948207,35.729305 33.5380699,32.7467906 37.8596724,30.7381585 C37.1901284,33.2337317 34.5728198,38.3466135 25.1992032,45.7724657 C24.7122621,62.2675963 25.9296149,86.5537849 32.3207171,119.544046 L38.6509517,119.544046 C37.9205401,111.752988 36.4597167,97.1447543 35.2423639,84.7277556 C42.3638778,90.5101815 52.8939796,88.9276228 52.8939796,88.9276228 C53.7461266,93.1883577 53.0157149,110.170429 52.4679062,119.544046 L58.7981408,119.544046 C60.3198318,109.440018 61.5371846,98.8490483 62.2067286,88.8058876 C62.998008,75.7802125 62.8762727,62.815405 61.9023904,49.9114653 Z" jetway-hook-id="73C4981C-9A3A-43D7-BD45-864C02AEF649" fill="#FBA9D6"></path>
            <path d="M33.4772023,21.2428066 C33.8424081,20.2689243 32.2598495,19.8428508 31.9555113,20.8167331 C30.1294821,25.9904825 27.7556441,30.312085 23.0079681,33.2945994 C20.8167331,34.6945551 18.3820274,35.729305 15.8864542,36.4597167 C17.5298805,36.398849 19.1733068,36.2162461 20.9384683,36.0945108 C20.999336,36.0945108 21.0602036,36.0945108 21.1210713,36.0945108 C22.3992917,35.4858344 23.6166445,34.8162904 24.7731297,34.0858787 C29.459938,31.164232 31.7729084,26.2339531 33.4772023,21.2428066 Z" jetway-hook-id="F759E8E1-2B10-4BED-A2FC-E9106C208FAA" stroke="#000000" stroke-width="0.5" fill="#000000"></path>
         </g>
         <path d="M5.90416113,57.7633909 L4.56507304,57.7633909 C3.53032315,57.7633909 3.53032315,59.3459495 4.56507304,59.3459495 L5.90416113,59.3459495 C6.93891102,59.3459495 6.93891102,57.7633909 5.90416113,57.7633909 Z" jetway-hook-id="E1DF7828-33F8-4782-A315-C29582B2A76C" id="Path" fill="#000000" fill-rule="nonzero"></path>
         <path d="M14.729969,57.7633909 L13.3908809,57.7633909 C12.356131,57.7633909 12.356131,59.3459495 13.3908809,59.3459495 L14.729969,59.3459495 C15.7038513,59.3459495 15.7038513,57.7633909 14.729969,57.7633909 Z" jetway-hook-id="A3EDCD7D-B601-4F61-9CF2-33D69D9188C0" id="Path" fill="#000000" fill-rule="nonzero"></path>
         <g jetway-hook-id="30820490-1B19-4D6D-9FE6-95F50CF3F9F9" transform="translate(23.129703, 0.000000)" fill-rule="nonzero" id="Path">
            <path d="M8.15626383,18.2602922 L6.4519699,12.356131 C4.99114653,14.060425 3.22598495,15.582116 1.33908809,16.7386012 L1.88689686,24.7122621 C4.44333776,23.190571 6.63457282,20.8776007 8.15626383,18.2602922 Z" jetway-hook-id="D486DE1F-FC50-4B34-B897-A914B14E41C0" fill="#E4594F"></path>
            <path d="M11.0779106,28.5469234 L8.76494024,20.3906596 C7.0606463,22.9471005 4.68680832,25.0774679 2.00863214,26.5382913 L2.61730854,35.8510403 C6.08676405,34.1467463 8.88667552,31.5903054 11.0779106,28.5469234 Z" jetway-hook-id="C36276C9-E602-4DF2-8E09-9C469B0E66B8" fill="#E4594F"></path>
            <path d="M5.90416113,10.5301018 L4.07813192,4.1998672 C3.04338203,5.17374945 1.88689686,6.08676405 0.669544046,6.87804338 L1.21735281,14.9734396 C2.98251439,13.7560868 4.62594068,12.2343958 5.90416113,10.5301018 Z" jetway-hook-id="382F19D4-3BB2-49EC-B47D-4C73448642E2" fill="#E4594F"></path>
            <path d="M13.1474104,35.8510403 L11.6257193,30.4338203 C9.312749,33.4163347 6.39110226,35.9119079 2.73904382,37.5553342 L3.10424967,42.9116866 C7.12151394,41.3291279 10.4692342,38.95529 13.1474104,35.8510403 Z" jetway-hook-id="EE410F02-F70C-4F2E-B716-2565F44F7999" fill="#E4594F"></path>
            <path d="M3.59119079,2.5564409 C3.22598495,1.64342629 2.43470562,0.182602922 1.39995573,0.608676405 C-0.0608676405,1.15648517 0.486941124,3.895529 0.486941124,3.895529 L0.547808765,5.11288181 C1.64342629,4.32160248 2.67817618,3.46945551 3.59119079,2.5564409 Z" jetway-hook-id="46787169-55CE-47FC-8C9B-66BEDB088A23" fill="#E4594F"></path>
            <path d="M4.07813192,44.189907 L9.37361664,43.5812306 C15.3995131,43.3986277 14.2430279,39.8074369 14.2430279,39.8074369 L13.6343515,37.6770695 C11.0170429,40.476981 7.85192563,42.668216 4.07813192,44.189907 Z" jetway-hook-id="F3999D19-1BE5-41A0-A0B6-CF865BC307B6" fill="#E4594F"></path>
            <path d="M3.83466135,3.28685259 C3.83466135,3.28685259 3.71292607,2.92164675 3.53032315,2.49557326 C2.61730854,3.40858787 1.58255865,4.26073484 0.547808765,4.99114653 L0.669544046,6.81717574 C1.88689686,6.02589641 3.04338203,5.11288181 4.07813192,4.13899956 L3.83466135,3.28685259 Z" jetway-hook-id="AA4673A7-4874-42F4-8AC7-593EA41670A1" fill="#FFFFFF"></path>
            <path d="M6.4519699,12.4169987 L5.90416113,10.5301018 C4.62594068,12.2343958 2.98251439,13.7560868 1.21735281,14.9734396 L1.33908809,16.7994688 C3.22598495,15.582116 4.99114653,14.1212926 6.4519699,12.4169987 Z" jetway-hook-id="F2AC575D-99BC-4323-A293-DCAD5B9110AE" fill="#FFFFFF"></path>
            <path d="M8.7040726,20.3297919 L8.09539619,18.2602922 C6.57370518,20.8776007 4.38247012,23.1297034 1.82602922,24.7122621 L1.9477645,26.4774236 C4.62594068,25.0166003 6.99977866,22.8862328 8.7040726,20.3297919 Z" jetway-hook-id="601A5A0B-F2A6-424B-804A-A54BCBFF0134" fill="#FFFFFF"></path>
            <path d="M11.6257193,30.4338203 L11.0779106,28.5469234 C8.88667552,31.5903054 6.1476317,34.1467463 2.61730854,35.8510403 L2.73904382,37.5553342 C6.33023462,35.8510403 9.25188136,33.4163347 11.6257193,30.4338203 Z" jetway-hook-id="7B749F15-F261-4AB7-A4F3-C337A4A847BC" fill="#FFFFFF"></path>
            <path d="M3.04338203,42.8508189 L3.16511731,44.2507747 L4.07813192,44.1290394 C7.79105799,42.668216 11.0170429,40.4161133 13.6343515,37.6162019 L13.0865427,35.7901726 C10.4692342,38.95529 7.12151394,41.3291279 3.04338203,42.8508189 Z" jetway-hook-id="EE3BF925-0C3E-465D-8EC5-D57B6CD53B0D" fill="#FFFFFF"></path>
         </g>
         <g jetway-hook-id="F351B4EA-DD76-48BA-B3ED-DCF69437DA16" transform="translate(27.999115, 43.216025)" fill-rule="nonzero" id="Path">
            <path d="M18.0168216,0.791279327 C18.0168216,0.669544046 18.0168216,0.486941124 18.0168216,0.365205843 L9.0084108,0.365205843 L9.0084108,10.9561753 C14.9125719,10.9561753 18.0168216,7.42585215 18.0168216,0.791279327 Z" jetway-hook-id="2021F3C4-04E2-4CE3-8093-017134DCDA86" fill="#000000"></path>
            <path d="M0.0608676405,0.365205843 C0.0608676405,6.99977866 3.16511731,11.0170429 9.0084108,11.0170429 C9.0084108,11.0170429 9.0084108,11.0170429 9.0084108,11.0170429 L9.0084108,0.365205843 L0.0608676405,0.365205843 Z" jetway-hook-id="BBCCE9F6-8289-4DE1-B96D-3D83622D6A44" fill="#99A0A7"></path>
         </g>
         <path d="M55.4504205,42.7290837 L7.36498451,42.7290837 C6.33023462,42.7290837 6.33023462,44.3116423 7.36498451,44.3116423 L55.4504205,44.3116423 C56.4851704,44.3116423 56.4851704,42.7290837 55.4504205,42.7290837 Z" jetway-hook-id="2B36C901-1CC6-4F78-AC43-80C71D3BC759" id="Path" fill="#000000" fill-rule="nonzero"></path>
         <path d="M47.2332891,45.2855246 C47.2332891,45.2855246 51.6157592,36.7031873 53.0765826,35.059761 C54.5374059,33.355467 57.0938468,29.8251439 56.3025675,37.0683931 C56.3025675,37.0683931 55.20695,45.1029216 51.0070828,48.5723772 L47.2332891,45.2855246 Z" jetway-hook-id="9EF9886E-A9C0-4ED6-AB8F-1E4D9C7A57BD" id="Path" fill="#FF63B8" fill-rule="nonzero"></path>
      </g>
      <g jetway-hook-id="0A694C46-8B59-4917-A12B-940722C031DE" id="Group-8" transform="translate(109.000000, 149.000000)">
         <path d="M4.3484346,4.23182578 C5.37655718,4.67838217 6.11484772,6.26592478 6.70021301,7.38358015 C7.31083917,8.54946687 8.13653066,9.85621652 7.98082733,11.1887201 C7.88990305,11.9668468 5.25189003,13.4638061 4.47875618,13.0931894 C3.47196879,12.6105663 2.96108717,11.3611023 2.43187036,10.3506529 C1.92085446,9.374955 0.945118234,7.78453818 1.00241653,6.53336723 C1.05971483,5.28219629 3.32031203,3.78526939 4.3484346,4.23182578 Z" jetway-hook-id="BE37F34F-1C0E-4BA6-8EDC-18C430554D83" id="Path-19" stroke="#FABB05" stroke-width="2.6" transform="translate(4.500000, 8.651180) rotate(5.000000) translate(-4.500000, -8.651180) "></path>
         <path d="M10.2907725,14.1828164 C11.4401704,14.460865 12.4182421,15.7985954 13.1767207,16.7325246 C13.9679308,17.7067566 15.0052941,18.7817781 15,19.9974449 C14.9968763,20.7073437 12.3662153,22.3679712 11.4976882,22.1276095 C10.3666782,21.8146067 9.67168325,20.7533518 8.98595816,19.9090055 C8.32381665,19.0936981 7.09237466,17.7818169 7.00263081,16.6509961 C6.91288696,15.5201754 9.14137468,13.9047679 10.2907725,14.1828164 Z" jetway-hook-id="18EB077A-444E-4BD8-BC85-40613B4EFF75" id="Path-19-Copy" stroke="#FABB05" stroke-width="2.6"></path>
         <path d="M39.9188083,3.85136102 C38.8906858,4.29791741 38.1523952,5.88546002 37.5670299,7.00311539 C36.9564038,8.1690021 36.1307123,9.47575176 36.2864156,10.8082554 C36.3773399,11.586382 39.0153529,13.0833414 39.7884868,12.7127246 C40.7952742,12.2301015 41.3061558,10.9806375 41.8353726,9.97018811 C42.3463885,8.99449024 43.3221247,7.40407342 43.2648264,6.15290247 C43.2075281,4.90173153 40.9469309,3.40480463 39.9188083,3.85136102 Z" jetway-hook-id="4BD48671-7C50-4030-AF4C-5CC8D559F68E" id="Path-19-Copy-3" stroke="#FABB05" stroke-width="2.6"></path>
         <path d="M34.3900318,13.781666 C33.2649406,13.9523913 32.1871088,15.2200448 31.3625844,16.0976339 C30.5024784,17.0130946 29.3969134,18.0071565 29.2690025,19.2468035 C29.1943078,19.9707059 31.5180859,21.9212935 32.3715556,21.7614453 C33.4829577,21.5532883 34.2609479,20.5396924 35.0063837,19.746282 C35.7261823,18.9801587 37.0424945,17.7636941 37.2516575,16.61985 C37.4608206,15.476006 35.515123,13.6109407 34.3900318,13.781666 Z" jetway-hook-id="68F3EB21-737C-49DB-98D2-44F839D259FC" id="Path-19-Copy-2" stroke="#FABB05" stroke-width="2.6"></path>
         <line x1="5.73790431" y1="11.0159203" x2="9.0028264" y2="16.0498336" jetway-hook-id="A9039548-139D-4AEF-974A-24EDABF5D325" id="Path-14" stroke="#EDA606" stroke-width="2.8" stroke-linecap="round"></line>
         <path d="M4.02175778,1.78524752 C3.31450256,2.58319046 2.99107987,3.44615563 3.05148971,4.37414301 C3.11189955,5.3021304 3.20381514,6.12534752 3.32723649,6.84379437" jetway-hook-id="0044C1CC-FB6C-490A-9F15-055D6A2B93A0" id="Path-14-Copy" stroke="#EDA606" stroke-width="2.4" stroke-linecap="round" stroke-linejoin="round" transform="translate(3.533058, 4.314521) rotate(-4.000000) translate(-3.533058, -4.314521) "></path>
         <line x1="38.6590858" y1="11.3497191" x2="35.0509688" y2="16.1436207" jetway-hook-id="1CB7715A-FD68-4F68-87BD-0B83DE6E5328" id="Path-14-Copy-3" stroke="#EDA606" stroke-width="2.4" stroke-linecap="round"></line>
         <path d="M41.4701188,1 C42.1299177,2.10186279 42.4904765,2.96542711 42.5517951,3.59069296 C42.6131137,4.21595881 42.2699772,5.11055239 41.5223856,6.27447369" jetway-hook-id="DF16A0B2-3B51-490D-B1A5-D9DAB23FA4ED" id="Path-14-Copy-2" stroke="#EDA606" stroke-width="2.4" stroke-linecap="round" transform="translate(42.014443, 3.637237) rotate(15.000000) translate(-42.014443, -3.637237) "></path>
      </g>
      <g jetway-hook-id="02C2FC8A-15D9-4CBD-A728-98A2EAFDAC18" id="CloudRun_Hex-128px-Copy-2" transform="translate(131.500000, 175.000000) rotate(-1.000000) translate(-131.500000, -175.000000) translate(115.000000, 160.000000)" fill="#4285F4" fill-rule="nonzero">
         <g jetway-hook-id="72F86082-9AD1-4399-A6BC-4B72FD7FBB53" id="BASE" transform="translate(0.199203, 0.684985)">
               <path d="M30.8638245,12.9141955 L24.4455547,1.58082439 C23.9544376,0.696552349 23.0390104,0.14227778 22.0393136,0.123889059 L9.20033355,0.123889059 C8.19947818,0.140401731 7.2824722,0.695069677 6.79165206,1.58082439 L0.373382237,12.8844622 C-0.124390563,13.7608549 -0.124390563,14.8401733 0.373382237,15.716566 L6.79165206,27.1143595 C7.27773466,28.0108524 8.19073553,28.5834009 9.19789314,28.6233282 L22.0368732,28.6233282 C23.043978,28.5877344 23.9586161,28.0175629 24.4455547,27.1217928 L30.8638245,15.7859439 C31.3636025,14.8959411 31.3636025,13.8041983 30.8638245,12.9141955 Z" jetway-hook-id="D9B3E04D-CDF9-409C-8223-29BFFC1E0259" id="Path"></path>
         </g>
      </g>
      <g jetway-hook-id="C30E65F1-49C0-4CF4-85B2-B2FF3CFA0247" id="Kubetnetes-Engine" transform="translate(123.544244, 167.000000)" fill-rule="nonzero">
         <path d="M13.7072656,4.2784375 L7.5,1.5078125 L1.56640625,4.73132812 L1.32421875,11.8346875 L11.4557373,22.2332329 L13.9072616,22.1109497 C14.906863,22.0766378 15.4744145,21.300052 15.9572936,20.4241479 L20.8874072,11.4020184 L13.7072656,4.2784375 Z" jetway-hook-id="3B8BAF5B-D636-459E-B707-141985053F2C" id="Path" fill="#000000" opacity="0.0700000003"></path>
         <g jetway-hook-id="F48725C5-B907-4C05-8DA9-DCE41FEDE0A1" id="art" transform="translate(0.960938, 0.539062)" fill="#FFFFFF">
            <path d="M12.59375,3.6328125 L6.86601563,0.3196875 C6.66343218,0.20386839 6.41469282,0.20386839 6.21210937,0.3196875 L0.484375,3.6328125 C0.281925905,3.74969648 0.157271996,3.96576325 0.15742174,4.19953125 L0.15742174,10.8185156 C0.157637465,11.0515525 0.282309513,11.2667273 0.484375,11.3828125 L6.21210938,14.6959375 C6.41442867,14.8127466 6.66369633,14.8127466 6.86601563,14.6959375 L12.59375,11.3828125 C12.7965669,11.2662966 12.9213558,11.0499959 12.9207057,10.8160937 L12.9207057,4.19953125 C12.920853,3.96576325 12.7961991,3.74969648 12.59375,3.6328125 Z M11.8139062,10.1839844 L9.8134375,9.02875 L9.8134375,5.986875 L6.85875,7.6821875 L6.85875,11.1042969 L9.49375,9.58335937 L11.4942188,10.7385937 L6.5390625,13.5988281 L1.58390625,10.7385937 L3.584375,9.58335938 L6.219375,11.1042969 L6.219375,7.691875 L3.2646875,5.9965625 L3.2646875,9.02875 L1.26421875,10.1839844 L1.26421875,4.46351562 L6.219375,1.60328125 L6.219375,3.91132812 L3.584375,5.4346875 L6.5390625,7.13 L9.49375,5.4346875 L6.85875,3.91132812 L6.85875,1.60328125 L11.8139062,4.46351562 L11.8139062,10.1839844 Z" jetway-hook-id="E533E4D1-2B0A-41FF-AC52-75B28950669B" id="Shape"></path>
         </g>
      </g>
    <path
       id="path918"
       fill="#6D4C41"
       d="M228.132 154.849s-3.044 2.618-4.261 4.444-3.348 8.521-3.835 11.686c-.426 2.983.548 4.2 1.644 4.079l9.86-19.904-3.408-.305z" />
    <path
       id="path920"
       fill="#424242"
       d="M223.688 172.927l8.4-16.86c.183-.365-.061-.852-.487-.852l-9.86 19.903c.061 0 .121 0 .243-.06.852-.305 1.704-2.131 1.704-2.131z" />
    <path
       id="path922"
       fill="#34A853"
       d="M250.47 78.034s14-20.086 13.513-65.615c0 0-.852-4.504-4.809-4.747-3.956-.244-4.93 4.078-4.93 4.078s-1.522 32.442-11.808 50.459c-10.226 18.017 4.565 20.634 8.034 15.825z" />
    <mask
       height="74"
       width="26"
       y="7"
       x="238"
       maskUnits="userSpaceOnUse"
       id="mask0">
      <path
         id="path924"
         fill="#fff"
         d="M250.47 78.034s14-20.086 13.513-65.615c0 0-.852-4.504-4.809-4.747-3.956-.244-4.93 4.078-4.93 4.078s-1.522 32.442-11.808 50.459c-10.226 18.017 4.565 20.634 8.034 15.825z" />
    </mask>
    <g
       id="g931"
       mask="url(#mask0)">
      <path
         id="path927"
         fill="#8D6E63"
         d="M250.775 29.584c.73-2.86 1.278-5.6 1.643-8.522.852-6.086 1.522-12.173 1.644-18.32 3.286.608 8.399 1.764 11.747 2.556.974 9.069.365 18.2.426 27.33l-.061.79-15.399-3.408s0-.061-.061-.183c.061-.121.061-.182.061-.243z" />
      <path
         id="path929"
         fill="#126B26"
         d="M251.627 25.993c3.226.426 6.391.791 9.617 1.156 1.704.183 3.348.426 5.052.609 0 1.643-.061 3.226-.061 4.87l-.061.79-15.399-3.408s0-.06-.061-.183c0-.06.061-.121.061-.182.304-1.279.608-2.435.852-3.652z" />
    </g>
    <path
       id="path933"
       fill="#34A853"
       d="M219.245 79.982s-17.591-17.043-25.686-61.841c0 0 0-4.565 3.835-5.6 3.834-1.035 5.6 3.043 5.6 3.043s7.608 31.53 21.121 47.355c13.512 15.826-.548 21.06-4.87 17.043z" />
    <mask
       height="70"
       width="37"
       y="12"
       x="193"
       maskUnits="userSpaceOnUse"
       id="mask1">
      <path
         id="path935"
         fill="#fff"
         d="M219.245 79.982s-17.591-17.043-25.686-61.841c0 0 0-4.565 3.835-5.6 3.834-1.035 5.6 3.043 5.6 3.043s7.608 31.53 21.121 47.355c13.512 15.826-.548 21.06-4.87 17.043z" />
    </mask>
    <g
       id="g942"
       mask="url(#mask1)">
      <path
         id="path938"
         fill="#8D6E63"
         d="M209.75 32.445c-1.278-2.618-2.313-5.296-3.226-8.035-1.948-5.782-3.774-11.686-5.113-17.651-3.104 1.217-7.913 3.286-11.017 4.747.791 9.07 3.043 17.956 4.748 26.904l.243.791 14.426-6.27s0-.06.061-.243c-.061-.122-.061-.182-.122-.243z" />
      <path
         id="path940"
         fill="#126B26"
         d="M208.289 29.097c-3.043 1.035-6.148 2.009-9.252 2.982-1.582.487-3.226 1.035-4.869 1.522.304 1.583.669 3.165.974 4.748l.243.791 14.426-6.27s0-.06.061-.243c0-.06-.061-.122-.061-.182a23.539 23.539 0 01-1.522-3.348z" />
    </g>
    <path
       id="path944"
       fill="#34A853"
       d="M231.358 59.713c2.982.244 5.843-.852 8.217-2.678.365-.243.67-.548.974-.852-2.557-1.46-9.069-3.287-14.547 1.096 1.278 1.46 3.469 2.252 5.356 2.434z" />
    <path
       id="path946"
       fill="#6D4C41"
       d="M220.402 48.818s-.548-.913-1.218-.365c-1.034.913.183 5.295 1.705 5.843 1.156.426 1.521-.365 1.765-.67.243-.425-2.252-4.808-2.252-4.808zM242.923 46.14s.791-.67 1.461 0c1.156 1.096.182 6.087-1.583 6.574-1.339.365-2.374-.122-2.617-.487-.183-.487 2.739-6.087 2.739-6.087z" />
    <path
       id="path948"
       fill="#34A853"
       d="M252.418 74.87c-1.948-7.244-5.782-12.479-8.461-15.522-1.217 1.157-2.556 2.13-4.078 2.86 1.035 2.07 1.339 4.566.609 6.818-1.035 3.044-3.713 5.417-7 5.356-5.234-.06-8.278-6.208-7.243-11.017-1.339-.486-2.617-1.217-3.591-2.252l-.061.122c0 .06-.061.06-.061.122-.061.06-.122.182-.183.243-.121.183-.243.365-.304.548-.122.183-.182.365-.304.548-.122.183-.183.365-.305.548-.121.182-.182.365-.304.547-.122.183-.183.366-.304.61-.061.182-.183.364-.244.608-.061.182-.182.365-.243.609-.061.182-.183.365-.244.608-.061.183-.182.365-.243.609-.061.183-.122.365-.244.609-.06.182-.121.365-.182.608a7.647 7.647 0 00-.183.609c-.061.183-.122.365-.182.609-.061.182-.122.365-.183.608a7.66 7.66 0 00-.183.609c-.06.183-.121.365-.121.609a1.797 1.797 0 00-.122.608c-.061.183-.061.366-.122.609-.061.183-.061.365-.122.548-.06.182-.06.365-.121.548-.061.182-.061.365-.122.547-.061.183-.061.366-.122.548-.061.183-.061.365-.061.548 0 .183-.06.365-.06.548 0 .182-.061.365-.061.548 0 .182-.061.365-.061.547 0 .183-.061.366-.061.548 0 .183-.061.365-.061.487 0 .183-.061.365-.061.487 0 .183 0 .305-.061.487 0 .183 0 .304-.061.487 0 .183 0 .304-.06.487v6.269l4.808 27.086 30.556-3.956-.183-34.208z" />
    <mask
       height="55"
       width="36"
       y="59"
       x="217"
       maskUnits="userSpaceOnUse"
       id="mask2">
      <path
         id="path950"
         fill="#fff"
         d="M252.418 74.87c-1.948-7.244-5.782-12.479-8.461-15.522-1.217 1.157-2.556 2.13-4.078 2.86 1.035 2.07 1.339 4.566.609 6.818-1.035 3.044-3.713 5.417-7 5.356-5.234-.06-8.278-6.208-7.243-11.017-1.339-.486-2.617-1.217-3.591-2.252l-.061.122c0 .06-.061.06-.061.122-.061.06-.122.182-.183.243-.121.183-.243.365-.304.548-.122.183-.182.365-.304.548-.122.183-.183.365-.305.548-.121.182-.182.365-.304.547-.122.183-.183.366-.304.61-.061.182-.183.364-.244.608-.061.182-.182.365-.243.609-.061.182-.183.365-.244.608-.061.183-.182.365-.243.609-.061.183-.122.365-.244.609-.06.182-.121.365-.182.608a7.647 7.647 0 00-.183.609c-.061.183-.122.365-.182.609-.061.182-.122.365-.183.608a7.66 7.66 0 00-.183.609c-.06.183-.121.365-.121.609a1.797 1.797 0 00-.122.608c-.061.183-.061.366-.122.609-.061.183-.061.365-.122.548-.06.182-.06.365-.121.548-.061.182-.061.365-.122.547-.061.183-.061.366-.122.548-.061.183-.061.365-.061.548 0 .183-.06.365-.06.548 0 .182-.061.365-.061.548 0 .182-.061.365-.061.547 0 .183-.061.366-.061.548 0 .183-.061.365-.061.487 0 .183-.061.365-.061.487 0 .183 0 .305-.061.487 0 .183 0 .304-.061.487 0 .183 0 .304-.06.487v6.269l4.808 27.086 30.556-3.956-.183-34.208z" />
    </mask>
    <g
       id="g955"
       mask="url(#mask2)">
      <path
         id="path953"
         fill="#126B26"
         d="M219.915 108.894l33.964-3.591.182 4.991s-18.382 3.165-18.929 3.165c-.487 0-13.756.427-13.756.427l-1.461-4.992z" />
    </g>
    <path
       id="path957"
       fill="#126B26"
       d="M233.488 74.382c3.287 0 6.026-2.313 7-5.356.73-2.252.487-4.748-.609-6.817-1.339.67-2.8 1.217-4.321 1.522-2.983.67-6.513.73-9.374-.366-.974 4.809 2.009 11.017 7.304 11.017z" />
    <path
       id="path959"
       fill="#8D6E63"
       d="M238.662 64.34c-.122-.853-.304-1.705-.487-2.618-.791-1.34-2.069-2.252-3.652-2.252-2.13.06-4.626.304-5.722 2.495-1.521 2.983 0 8.948 3.287 9.678 2.861.67 6.391-1.765 6.939-5.295-.182-.609-.243-1.34-.365-2.009z" />
    <path
       id="path961"
       fill="#8D6E63"
       d="M221.254 36.705s-1.035.487-1.278 4.566c-.244 4.078.182 8.46.487 10.773.365 2.313.791 7 3.104 8.582 2.313 1.583 3.408 2.313 6.817 2.618 3.409.365 7.548-1.218 8.765-2.13 1.217-.914 4.504-4.322 4.017-9.983-.487-5.66-.548-10.043-1.522-12.478-1.034-2.435-3.895-3.591-6.938-4.017-3.044-.426-8.583-1.096-13.452 2.07z" />
    <path
       id="path963"
       fill="#372E2E"
       d="M220.28 48.575c-.548.486-1.278-2.8-1.339-3.105-.426-2.556-.304-5.356 0-7.912.061-.487.122-.974.304-1.4.244-.548.731-.913 1.157-1.279 1.887-1.4 4.078-2.86 6.33-3.53 3.956-1.156 7.974-.426 11.687.974 1.521.548 2.495 1.46 3.469 2.8 1.522 2.07 2.374 4.626 2.435 7.243 0 .487-.487 5.843-1.339 5.478-.122-.06-.183-.791-.183-.913-.122-.67-.243-1.339-.304-2.008a117.18 117.18 0 01-.67-4.87c-.122-1.035-1.278-1.704-2.13-2.252-1.157-.73-2.435-1.217-3.713-1.522-2.374-.608-4.87-.913-7.304-.487-2.374.487-4.626 1.34-6.452 2.983-.609.609-1.035 1.339-1.4 2.13-.365.792-.305 1.826-.305 2.74-.06.608-.182 4.93-.243 4.93z" />
    <path
       id="path965"
       fill="#263238"
       d="M223.567 43.4a.463.463 0 01-.244-.121c-.182-.122-.182-.365 0-.548.183-.182 1.644-1.826 2.922-1.704.426.06.73.243.974.609a.396.396 0 01-.122.547.397.397 0 01-.548-.121c-.121-.183-.243-.244-.426-.244-.669-.06-1.704.852-2.252 1.461-.122.122-.182.122-.304.122zM238.419 42.244a.335.335 0 01-.305-.182c-1.4-1.948-2.982-.974-3.104-.852a.397.397 0 11-.426-.67s2.252-1.522 4.2 1.035c.121.182.061.426-.061.548-.183.121-.244.121-.304.121zM223.871 47.236c-.061 0-.122 0-.243-.061a.396.396 0 01-.122-.548c.061-.061.974-1.4 2.313-1.522.669-.06 1.339.244 1.887.791.122.122.122.366 0 .548-.122.122-.365.122-.548 0-.426-.426-.852-.608-1.278-.608-.791.06-1.522.913-1.765 1.217 0 .122-.122.183-.244.183zM238.601 45.836c-.061 0-.122 0-.183-.061-2.312-1.461-3.104-.305-3.104-.305a.396.396 0 11-.669-.426s1.278-1.826 4.2.061a.397.397 0 01.121.548c-.121.122-.243.183-.365.183z" />
    <path
       id="path967"
       fill="#6D4C41"
       d="M230.627 50.157c-.121 0-.304-.06-.365-.182a.374.374 0 01.061-.427c.122-.182.487-1.521.791-2.617.061-.182.244-.304.487-.243.183.06.305.243.244.487-.305 1.156-.487 1.826-.67 2.252.487-.061 1.096-.122 1.339-.061.183.06.366.243.305.426a.458.458 0 01-.426.304c-.183-.121-1.035 0-1.766.061.061 0 0 0 0 0z" />
    <path
       id="path969"
       fill="#4E342E"
       d="M224.723 53.81c.061-.123.122-.183.244-.305.304-.244.669-.365 1.034-.487.609-.183 1.279-.244 1.887-.365 1.279-.183 2.557-.365 3.835-.426.73-.061 1.4-.061 2.13-.122 1.522-.122 3.105-.183 4.626-.304.122 0 .305 0 .426.121a.185.185 0 010 .244c-.121.73-.669 1.339-1.217 1.765-1.765 1.4-3.956 1.948-6.148 2.07-1.521.06-3.226.06-4.747-.427-.487-.182-.913-.365-1.339-.67-.366-.182-.974-.669-.731-1.095z" />
    <path
       id="path971"
       fill="#fff"
       d="M233.732 52.592c-.67.06-1.279.06-1.948.122-1.157.06-2.313.182-3.53.304-.548.06-1.157.122-1.705.243-.121.061-.304.061-.426.122.365.609.67 1.217.913 1.826.061 0 .183.061.244.061 1.339.365 2.86.365 4.26.304 1.948-.121 3.957-.547 5.539-1.582 0-.365 0-.67.061-.913.061-.244.061-.487.122-.73-1.156.121-2.374.182-3.53.243z" />
    <path
       id="path973"
       fill="#4E342E"
       d="M226.245 54.6h1.583l.121.487-1.339.305-.365-.792zM237.566 52.957c-.06 0-2.069.609-2.069.609l.182.426 1.766-.183.121-.852z" />
    <path
       id="path975"
       fill="#34A853"
       d="M222.593 61.113l-.061.122z" />
    <path
       id="path977"
       fill="#8D6E63"
       d="M234.584 60.87l3.287 4.078.121.426-3.469 3.896-6.026-2.618-.852-5.234 6.939-.548z" />
    <path
       id="path979"
       fill="#78909C"
       d="M242.436 218.274l2.374-8.218-8.035-4.504-1.582 7.852c2.312 1.765 4.747 3.348 7.243 4.87z" />
    <path
       id="path981"
       fill="#126B26"
       d="M234.219 218.395l7.365 2.983.913-3.104c-2.496-1.522-4.931-3.105-7.244-4.87l-1.034 4.991z" />
    <path
       id="path983"
       fill="#6D4C41"
       d="M246.21 223.265l-4.687-1.887-7.365-2.983-.548 2.557 15.886 6.513c-.243-1.887-1.521-3.47-3.286-4.2z" />
    <path
       id="path985"
       fill="#424242"
       d="M249.618 228.134c0-.243-.061-.426-.061-.609l-15.886-6.512-.122.608 16.069 6.513z" />
    <path
       id="path987"
       fill="#012754"
       d="M252.54 108.955l-30.556 3.957s-25.077 36.825-25.138 36.886c-2.252 3.286-2.739 8.643-.061 11.747 3.956 4.565 11.017 3.043 16.13 1.948 2.13-.426 4.2-.913 6.33-1.4 3.774-4.322.67-7.122-.913-8.156l-8.947-.853 21.486-27.329 6.695.243 7.487 38.164-8.339 41.39 8.035 4.504 12.538-43.337-4.747-57.764z" />
    <path
       id="path989"
       fill="#78909C"
       d="M219.306 162.093c.913-.183 1.765-.426 2.678-.609 1.339-1.461 2.252-3.287 1.948-5.295-.122-.67-.365-1.218-.67-1.765l-4.869-.427c1.583.974 4.687 3.774.913 8.096z" />
    <path
       id="path991"
       fill="#126B26"
       d="M228.132 154.85l-4.87-.427c.366.548.609 1.096.67 1.766.304 2.008-.67 3.834-1.948 5.295 1.035-.243 2.07-.487 3.105-.669 0 0 2.191-2.374 3.043-5.965z" />
    <path
       id="path993"
       fill="#FABB05"
       d="M254.122 14.184c-.06.792-.121 1.705-.243 2.8l10.104.791v-2.86l-9.861-.73z" />
    <path
       id="path995"
       fill="#8D6E63"
       d="M202.933 15.706c1.765-1.156 4.321-4.2 4.2-5.052-.122-.852-1.766-5.052-2.313-5.478-.548-.487-1.218.06-1.218.06s-.548-1.52-1.948-1.277c-1.46.182-1.643 1.46-1.643 1.46s-.852-.913-1.826-.547c-.974.365-1.035 1.521-1.035 1.521s-.73-.79-1.582-.365c-.852.365-.913 1.278-.913 1.278s-1.035-.913-2.07.366c-1.339 1.704-.182 3.773-.122 4.808.061 1.035.609 3.956 1.096 5.6-.061.06 5.722 0 9.374-2.374z" />
    <path
       id="path997"
       fill="#6D4C41"
       d="M196.42 12.663a.333.333 0 01-.304-.183c-.427-.974-.792-1.948-.974-3.226-.061-.182.121-.365.304-.426.183-.06.365.122.365.304.244 1.218.548 2.13.974 3.105.061.182 0 .365-.183.426h-.182zM199.22 11.141c-.122 0-.244-.06-.305-.243-.426-1.096-.791-2.13-1.034-3.53-.061-.183.121-.366.304-.366.183-.06.365.122.365.304.244 1.34.609 2.374 1.035 3.409.061.183 0 .365-.183.426h-.182z" />
    <path
       id="path999"
       fill="#6D4C41"
       d="M200.254 15.584a.335.335 0 01-.304-.182c-.061-.061-.852-1.826.122-3.652.487-.913 1.4-1.766 2.13-2.252-1.461-.183-2.434-1.035-2.921-1.826-.366-.61-.244-.853-.183-.913.061-.122.243-.366 3.104-1.522.183-.061.365 0 .426.182.061.183 0 .366-.182.426-1.096.427-2.313.974-2.739 1.218.182.487 1.278 1.887 3.469 1.704.183 0 .304.061.365.244.061.121 0 .304-.121.426 0 0-2.009 1.217-2.739 2.617-.792 1.46-.122 2.982-.061 3.043.061.183 0 .366-.183.426-.122.061-.183.061-.183.061z" />
    <path
       id="path1001"
       fill="#8D6E63"
       d="M254.305 11.81c-1.948-.852-4.93-3.469-4.93-4.321 0-.852.974-5.235 1.4-5.782.426-.548 1.217-.122 1.217-.122s.304-1.583 1.704-1.583c1.461-.06 1.826 1.157 1.826 1.157s.67-1.035 1.705-.792c1.034.244 1.278 1.34 1.278 1.34s.609-.914 1.461-.61c.913.244 1.095 1.157 1.095 1.157s.913-1.095 2.131.061c1.582 1.461.791 3.713.913 4.748.121 1.035 0 4.017-.244 5.721.122-.06-5.539.792-9.556-.974z" />
    <path
       id="path1003"
       fill="#6D4C41"
       d="M260.209 7.793h-.061c-.182-.06-.304-.243-.243-.426.243-1.035.426-1.948.426-3.165 0-.182.182-.304.365-.365.183 0 .365.183.365.365 0 1.278-.243 2.252-.487 3.348-.061.122-.182.243-.365.243zM257.227 6.758h-.061c-.183-.06-.305-.243-.244-.426.244-1.095.426-2.19.487-3.53 0-.183.183-.365.365-.365.183 0 .366.182.366.365 0 1.46-.244 2.496-.487 3.652-.122.183-.244.304-.426.304z" />
    <path
       id="path1005"
       fill="#6D4C41"
       d="M256.922 11.263h-.121c-.183-.061-.305-.244-.244-.426 0 0 .487-1.644-.548-2.983-.974-1.278-3.104-2.13-3.104-2.13-.122-.061-.243-.244-.183-.365 0-.183.183-.305.305-.305 2.191-.121 3.043-1.765 3.165-2.252-.365-.122-1.704-.487-2.861-.73-.182-.061-.304-.244-.243-.426.061-.183.243-.305.426-.244 3.043.67 3.226.913 3.347.974.061.06.244.244-.06.913-.366.852-1.218 1.826-2.618 2.252.792.426 1.826 1.096 2.435 1.887 1.217 1.644.67 3.53.67 3.591-.122.122-.244.244-.366.244z" />
    <path
       id="path1007"
       fill="#FFAB91"
       d="M57.824 136.772l4.383 5.6c.67.852 1.704 1.217 2.739 1.095l-5.965-7.608-1.157.913z" />
    <path
       id="path1009"
       fill="#6D4C41"
       d="M62.085 141.033c.365.426.304.913.06 1.278l.062.122c.67.852 1.704 1.217 2.739 1.095l-5.965-7.608-.609.487 3.713 4.626z" />
    <path
       id="path1011"
       fill="#6E4420"
       d="M29.825 46.383l-2.07 10.104 23.435 4.748 2.19-10.043s0-9.495-9.738-11.626c-.06-.06-8.035-2.495-13.817 6.817z" />
    <path
       id="path1013"
       fill="#FF7043"
       d="M51.068 57.279c-1.035-.244-2.07.487-2.313 1.521l-.304 1.461c-.244 1.035.487 2.07 1.521 2.313 1.035.244 2.07-.487 2.313-1.522l.305-1.46a2.032 2.032 0 00-1.522-2.313zM29.703 52.41c-1.034-.244-2.07.486-2.313 1.52l-.304 1.462c-.243 1.034.487 2.07 1.522 2.313 1.035.243 2.07-.487 2.313-1.522l.304-1.46a2.032 2.032 0 00-1.522-2.314z" />
    <path
       id="path1015"
       fill="#FFAB91"
       d="M12.113 58.557a3.243 3.243 0 01-2.861-1.765c-3.044-6.27-5.417-13.574-6.33-19.6a3.17 3.17 0 012.678-3.59 3.17 3.17 0 013.591 2.677c.791 5.357 2.982 12.113 5.722 17.713.79 1.582.121 3.47-1.461 4.26-.366.244-.852.305-1.34.305z" />
    <path
       id="path1017"
       fill="#4E342E"
       d="M25.32 95.2c.731 0 .792-1.157 0-1.157-.73-.061-.73 1.156 0 1.156z" />
    <path
       id="path1019"
       fill="#8C6E63"
       d="M29.947 55.818s-.122-1.522.183-2.8c.304-1.278 0 0 0 0s.121-.913.973-.791c.852.121 0 0 0 0" />
    <path
       id="path1021"
       fill="#4285F4"
       d="M44.981 75.478c2.557.791 3.652 1.887 3.652 1.887l-.06.122-3.592-2.009z" />
    <path
       id="path1023"
       fill="#4FC2F6"
       d="M42.181 74.504l-6.27 5.965-3.834-7.67-.67.062-4.26 6.634 6.574 1.157-1.278 7.608 2.069.305 2.252.426 1.278-7.609 6.635 1.096-1.704-7.67-.792-.304z" />
    <path
       id="path1025"
       fill="#4285F4"
       d="M35.608 83.756a.913.913 0 100-1.826.913.913 0 000 1.826zM34.999 87.226a.913.913 0 100-1.826.913.913 0 000 1.826z" />
    <path
       id="path1027"
       fill="#FB8C00"
       d="M42.85 39.688c-5.843-.974-11.381 2.921-12.355 8.826l-1.4 8.217c-.974 5.843 2.921 11.382 8.826 12.356 5.843.974 11.382-2.922 12.356-8.826l1.4-8.217c.974-5.782-2.983-11.382-8.826-12.356z" />
    <path
       id="path1029"
       fill="#FFA626"
       d="M32.199 52.47s-1.217 2.009-2.313 3.348c0 0-.06 3.287 2.617 3.47l3.165.547s1.705.365 2.13-1.339c0 0 .549-1.34.549-2.191 0 0 .547-2.618-2.313-3.105l-3.835-.73zM42.912 61.053s-1.644-.122-1.583-1.948c.061-1.826 0 0 0 0s0-1.583.244-2.252c.243-.67 0 0 0 0s.304-2.435 3.165-2.192c2.86.244 0 0 0 0l4.99.73s.792 0 .67 1.036c-.121 1.034 0 0 0 0s-.608 5.904-4.321 5.112c-3.713-.73 0 0 0 0l-3.165-.486" />
    <path
       id="path1031"
       fill="#5D4037"
       d="M29.947 55.818s-.183-1.583.183-2.8c.365-1.217 0 0 0 0s.121-.913.973-.791c.852.121 0 0 0 0l1.157.243c-.061 0-.67 1.46-2.313 3.348M49.729 55.392s.852.122.67 1.035c0 0-4.687-1.096-6.392-1.827 0 0 .426-.06.73 0l4.992.792z" />
    <path
       id="path1033"
       fill="#BF360C"
       d="M40.112 65.861a7.255 7.255 0 01-3.409-.852c-.183-.061-.243-.304-.122-.487.061-.183.305-.244.487-.122 2.192 1.218 5.052 1.035 7.061-.487.122-.121.365-.06.487.061.122.122.06.365-.06.487-1.34.913-2.862 1.4-4.444 1.4z" />
    <path
       id="path1035"
       fill="#EF6C00"
       d="M39.32 62.635c-.73 0-1.46-.304-1.886-.609-.061-.06-.122-.121-.183-.243-.06-.122 0-.183.122-.244l1.765-1.765a.37.37 0 01.487 0 .37.37 0 010 .487l-1.4 1.461c.426.183.852.304 1.217.304.183 0 .365.122.365.305 0 .182-.121.365-.304.365-.122-.06-.122-.06-.183-.06z" />
    <path
       id="path1037"
       fill="#3E2723"
       d="M36.703 56.913a.458.458 0 01-.426-.304c0-.06-.365-.913-1.704-1.096-1.34-.243-2.191.487-2.191.487a.465.465 0 01-.305.122c-.974 0-1.339-.791-1.4-1.156-.06-.244.122-.487.366-.487.243-.061.486.121.486.365 0 .122.061.304.366.365.365-.243 1.4-.852 2.8-.609 1.826.305 2.373 1.644 2.373 1.705.061.243 0 .487-.243.608h-.122z" />
    <path
       id="path1039"
       fill="#3E2723"
       d="M34.634 55.087c-.365-.06-.73.183-.792.548l-.182.974c-.061.365.182.73.548.791.365.061.73-.182.79-.547l.184-.974c.06-.365-.183-.73-.548-.792z" />
    <path
       id="path1041"
       fill="#4E342E"
       d="M33.477 52.714h-.06c-.244-.061-.427-.305-.366-.548a1.752 1.752 0 011.948-1.4l1.217.182c.244.061.426.305.365.548-.06.244-.304.426-.547.365l-1.218-.182c-.426-.061-.852.243-.913.608 0 .305-.182.427-.426.427z" />
    <path
       id="path1043"
       fill="#3E2723"
       d="M48.025 58.861c-.183 0-.305 0-.487-.06a.84.84 0 01-.244-.183c0-.061-.608-.974-1.948-1.218-1.278-.243-1.947.487-1.947.487-.183.183-.426.183-.67.061-.182-.182-.243-.426-.06-.608.06-.061.973-1.096 2.8-.792 1.4.244 2.19 1.096 2.434 1.461.304.06.426-.122.487-.243.121-.244.426-.305.608-.183.244.122.305.365.183.609-.122.243-.487.67-1.156.67z" />
    <path
       id="path1045"
       fill="#3E2723"
       d="M45.407 56.913c.366.061.609.426.548.792l-.182.974c-.061.365-.427.608-.792.547-.365-.06-.608-.426-.548-.79l.183-.975c.122-.365.426-.608.791-.548z" />
    <path
       id="path1047"
       fill="#4E342E"
       d="M47.781 55.148h-.06c-.244-.06-.427-.304-.366-.548.06-.426-.243-.852-.609-.913l-1.217-.182c-.244-.061-.426-.304-.365-.548.06-.243.304-.426.548-.365l1.217.183a1.752 1.752 0 011.4 1.947c-.122.244-.304.426-.548.426zM25.32 95.2c.731 0 .792-1.157 0-1.157-.73-.061-.73 1.156 0 1.156z" />
    <path
       id="path1049"
       fill="#8C6E63"
       d="M29.947 55.818s-.122-1.522.183-2.8c.304-1.278 0 0 0 0s.121-.913.973-.791c.852.121 0 0 0 0" />
    <path
       id="path1051"
       fill="#FFAB91"
       d="M26.6 77c-.67 0-1.4-.244-2.01-.67-.365-.304-9.373-7.547-15.095-18.99-.79-1.583-.121-3.47 1.4-4.261 1.583-.791 3.47-.122 4.261 1.4 5.052 10.104 13.27 16.738 13.33 16.8a3.126 3.126 0 01.487 4.443c-.548.852-1.46 1.278-2.374 1.278z" />
    <path
       id="path1053"
       fill="#E4594F"
       d="M26.6 77c-.67 0-1.4-.244-2.01-.67-.06-.06-2.008-1.582-4.625-4.321a3.18 3.18 0 01.121-4.505 3.18 3.18 0 014.505.122c2.313 2.374 3.956 3.713 3.956 3.713a3.126 3.126 0 01.487 4.443A3.084 3.084 0 0126.599 77z" />
    <path
       id="path1055"
       fill="#FFAB91"
       d="M42.85 39.688c-5.843-.974-11.381 2.921-12.355 8.826l-1.4 8.217c-.974 5.843 2.921 11.382 8.826 12.356 5.843.974 11.382-2.922 12.356-8.826l1.4-8.217c.974-5.782-2.983-11.382-8.826-12.356z" />
    <path
       id="path1057"
       fill="#263238"
       d="M50.764 56.853c-.122 0-.244-.061-.366-.122-3.226-3.53-5.295-2.496-5.356-2.435-.243.122-.487.061-.609-.182-.121-.244-.06-.487.183-.61.122-.06 2.678-1.46 6.452 2.618a.478.478 0 010 .67c-.06 0-.183.06-.304.06z" />
    <path
       id="path1059"
       fill="#FF8A65"
       d="M39.807 60.93c-.73 0-1.521-.425-1.947-.73a.461.461 0 01-.122-.243c0-.122.06-.183.122-.244l1.886-1.643a.37.37 0 01.487 0 .37.37 0 010 .487l-1.521 1.339c.426.243.852.365 1.217.365.183 0 .304.183.304.365-.06.122-.243.305-.426.305z" />
    <path
       id="path1061"
       fill="#263238"
       d="M48.511 58.861c-.121 0-.304 0-.486-.06-.122 0-.183-.062-.244-.183 0-.061-.73-.913-1.948-.913-1.4 0-2.07.791-2.07.852-.182.182-.425.243-.669.06-.182-.182-.243-.425-.06-.608.06-.06.973-1.157 2.738-1.157 1.4 0 2.253.792 2.557 1.157.304.06.426-.122.487-.243.121-.244.365-.305.608-.183.244.122.305.365.183.609 0 .243-.426.67-1.096.67zM37.373 56.61c-.061 0-.061 0 0 0-.305 0-.487-.244-.426-.488 0-.06.06-1.095-.913-2.07-.852-.852-1.948-.669-2.009-.669-.122 0-.183 0-.304-.06-.852-.427-.913-1.279-.792-1.644.061-.244.305-.365.548-.305.244.061.365.305.305.548 0 .122-.061.305.182.487.426-.06 1.644 0 2.617.974 1.279 1.278 1.157 2.678 1.157 2.74a.395.395 0 01-.365.486z" />
    <path
       id="path1063"
       fill="#E4594F"
       d="M42.06 73.956c2.252 1.035 9.92 3.592 8.643 6.878l-8.46 25.017-23.374-1.278 4.687-30.251c.974-2.74 2.556-2.618 7.182-2.435 0 0 1.278.243 6.574.73.06-.06 2.678.365 4.748 1.34z" />
    <path
       id="path1065"
       fill="#FFAB91"
       d="M34.694 79.678l-3.043-7.852 2.496.122.73-3.957 5.66 1.035-.608 3.957 2.191.73-6.026 6.208c-.06.061-.852.73-1.4-.243z" />
    <path
       id="path1067"
       fill="#EF6C00"
       d="M7.304 34.332c-.122 0-.183-.061-.243-.122-.73-.852-.67-1.705-.487-2.252-1.522-.244-2.07-1.644-2.192-2.374 0-.122 0-.183.061-.244.061-.06.122-.121.244-.121l4.017-.244c.183 0 .365.122.365.305 0 .182-.121.365-.304.365l-3.591.182c.182.548.67 1.461 1.947 1.461.122 0 .244.061.305.183.06.122.06.243-.061.365 0 .06-.67.852.183 1.887a.322.322 0 01-.061.487c-.061.122-.122.122-.183.122z" />
    <path
       id="path1069"
       fill="#EF6C00"
       d="M6.087 30.375c-.244 0-.366-.182-.305-.365l.244-2.557c0-.182.182-.304.365-.304s.304.183.304.365l-.243 2.557c-.061.182-.183.304-.365.304zM3.835 32.81c-.183 0-.305-.122-.305-.305l-.182-4.382c0-.183.121-.365.304-.365s.365.122.365.304l.183 4.383c0 .243-.183.365-.365.365zM2.252 33.175c-.183 0-.304-.122-.304-.304L1.4 29.097c0-.183.122-.365.304-.365.183 0 .365.121.365.304l.548 3.774c0 .182-.121.365-.365.365z" />
    <path
       id="path1071"
       fill="#FFAB91"
       d="M2.009 35.001l-1.4-5.843s-.183-.913.73-1.218c0 0 .73-.243 1.157.426 0 0-.122-1.034 1.217-1.339 0 0 1.156-.182 1.46.73 0 0-.182-1.034 1.035-1.338 0 0 1.035-.061 1.34.73 0 0-.122-.852 1.217-.791 0 0 .73-.061.974 1.156l.182 1.218s1.218-.061 1.279 1.034l.426 3.774s-1.461 1.279-2.435 2.313l.426 2.191-6.026 2.13" />
    <path
       id="path1073"
       fill="#FF8A65"
       d="M6.148 34.514c-.183 0-.305-.122-.305-.304-.121-.73 0-1.34.365-1.887.305-.426.73-.73 1.157-.913-.974-.609-1.217-1.704-1.096-2.313 0-.183.122-.304.305-.304l2.982-.183c.183 0 .365.122.365.304 0 .183-.121.365-.304.365l-2.739.244c.06.487.243 1.4 1.522 1.643.182 0 .304.183.304.305 0 .182-.122.304-.304.304 0 0-1.096.183-1.644.974a1.69 1.69 0 00-.243 1.34c.06.182-.061.364-.244.364-.06.061-.121.061-.121.061zM3.53 32.505c-.121 0-.304-.121-.304-.243l-.791-3.226c-.061-.183.06-.365.243-.426.183-.06.365.06.426.243l.73 3.166c.061.182-.06.365-.243.426l-.06.06z" />
    <path
       id="path1075"
       fill="#FF8A65"
       d="M5.965 31.836c-.183 0-.304-.122-.304-.243l-.67-3.105c-.06-.182.061-.365.244-.426.182-.06.365.061.426.244l.67 3.104c.06.183-.062.365-.244.426-.061-.06-.122 0-.122 0z" />
    <path
       id="path1077"
       fill="#fff"
       d="M33.903 62.513s-.06-1.339.913-1.035c0 0 3.287 1.887 7.73 2.192 0 0 1.157 0 .61 1.034 0 0-.792 2.8-5.6 2.07-.061.06-3.835-.609-3.653-4.26z" />
    <path
       id="path1079"
       fill="#263238"
       d="M42.973 65.13s-.67.366-2.74.244c0 0 .73.67 1.887.791 0 0 1.218-.608.853-1.034zM36.155 64.278s-1.095-.304-2.313-1.339l.061 1.035c0-.06 1.035.609 2.252.304z" />
    <path
       id="path1081"
       fill="#6E4420"
       d="M51.616 46.079a6.635 6.635 0 100-13.27 6.635 6.635 0 000 13.27z" />
    <path
       id="path1083"
       fill="#6E4420"
       d="M43.52 39.262c-5.843-1.218-11.747 2.556-12.964 8.4l-.61 3.712c12.661 2.618 18.383-.973 18.383-.973-1.217 5.843 1.948 9.982 1.948 9.982l1.765-8.339c1.643-6.148-2.678-11.565-8.522-12.782z" />
    <path
       id="path1085"
       fill="#EFF0F2"
       d="M31.651 71.887s-2.252-.548-5.356-2.618c-.061 0 2.07 4.14 5.356 2.618z" />
    <path
       id="path1087"
       fill="#90130E"
       d="M16.738 68.296l4.81-4.2s3.286 3.834 3.469 3.834l-4.687 4.261c-.061.061-1.826-1.704-3.591-3.895z" />
    <path
       id="path1089"
       fill="#FFAB91"
       d="M70.12 81.382c-1.4 0-2.679-.913-3.105-2.374-.426-1.704.548-3.469 2.252-3.895 6.026-1.583 12.6-4.383 17.104-7.304 1.461-.974 3.47-.487 4.383.974.974 1.46.487 3.47-.974 4.382-5.113 3.287-12.174 6.33-18.93 8.095-.183.122-.426.122-.73.122z" />
    <path
       id="path1091"
       fill="#FFAB91"
       d="M55.633 83.208c-.791 0-1.522 0-2.252-.06-1.765-.061-3.104-1.522-3.043-3.287.06-1.766 1.521-3.105 3.286-3.044 3.713.122 9.374-.06 15.157-1.521 1.704-.427 3.469.608 3.895 2.313.426 1.704-.609 3.408-2.313 3.895-5.417 1.34-10.713 1.704-14.73 1.704z" />
    <path
       id="path1093"
       fill="#E4594F"
       d="M54.05 83.208h-.121c-.426 0-.913-.06-1.34-.06-2.738-.122-5.051-.183-6.816-.731-1.644-.548-2.618-2.313-2.07-4.017.548-1.644 2.313-2.618 4.017-2.07.913.305 3.105.365 5.052.426.426 0 .913.061 1.4.061 1.765.061 3.105 1.583 3.044 3.348a3.158 3.158 0 01-3.166 3.043z" />
    <path
       id="path1095"
       fill="#90130E"
       d="M58.25 83.147l.183-6.39s-2.983.06-4.565.06l-.244 6.391c-.06 0 1.826.122 4.626-.06z" />
    <path
       id="path1097"
       fill="#EF6C00"
       d="M93.067 67.626c-.67 0-1.34-.243-1.948-.913a.37.37 0 010-.487.37.37 0 01.487 0c.852.974 1.887.73 2.374.487l-2.192-2.86c-.121-.122-.06-.366.061-.488.122-.121.365-.06.487.061l2.435 3.165c.06.061.06.183.06.244 0 .122-.06.183-.12.243-.366.305-.975.548-1.644.548z" />
    <path
       id="path1099"
       fill="#EF6C00"
       d="M93.188 66.47a.462.462 0 01-.243-.122.37.37 0 010-.487l1.826-1.887a.37.37 0 01.487 0 .37.37 0 010 .487l-1.826 1.887c-.061.06-.122.122-.244.122zM92.823 69.757c-.121 0-.182-.061-.243-.122a.322.322 0 01.06-.487l3.41-2.74a.322.322 0 01.486.062.322.322 0 01-.06.487l-3.41 2.739c-.06.06-.121.06-.243.06z" />
    <path
       id="path1101"
       fill="#FFAB91"
       d="M92.154 72.435l5.356-2.8s.791-.487.426-1.4c0 0-.304-.73-1.096-.609 0 0 .852-.609.183-1.765 0 0-.609-1.035-1.522-.609 0 0 .913-.547.305-1.643 0 0-.67-.852-1.4-.487 0 0 .73-.487-.183-1.46 0 0-.426-.61-1.522.06l-1.034.67s-.73-.974-1.644-.244l-3.104 2.13s0 1.948-.183 3.348l-1.947 1.096 2.373 5.965" />
    <path
       id="path1103"
       fill="#FF8A65"
       d="M90.084 69.148a.335.335 0 01-.304-.183c-.122-.182-.061-.365.121-.487.487-.243.73-.608.853-1.095.243-.913-.366-1.887-.366-1.887-.121-.183-.06-.365.122-.487.183-.122.365-.061.487.122 0 .06.73 1.217.426 2.373-.182.61-.548 1.096-1.156 1.461-.061.122-.122.183-.183.183z" />
    <path
       id="path1105"
       fill="#FF8A65"
       d="M92.032 66.226c-.487 0-1.035-.182-1.583-.608-.121-.122-.182-.305-.06-.487.121-.122.304-.183.486-.061 1.34 1.035 2.313 0 2.435-.122a.37.37 0 01.487 0 .37.37 0 010 .487 2.305 2.305 0 01-1.765.791z" />
    <path
       id="path1107"
       fill="#FF8A65"
       d="M93.554 65.557c-.122 0-.183-.061-.244-.122l-1.826-2.374c-.122-.122-.06-.365.06-.487.123-.122.366-.06.488.061l1.826 2.374c.122.122.06.365-.06.487-.062.06-.123.06-.244.06zM93.31 69.817a.335.335 0 01-.304-.182c-.061-.183 0-.366.121-.426l2.861-1.522c.183-.06.365 0 .426.122.061.182 0 .365-.121.426l-2.861 1.522c0 .06-.061.06-.122.06zM92.214 67.504a.335.335 0 01-.304-.182c-.06-.183-.06-.365.122-.426l2.8-1.583c.182-.06.365-.06.426.122.06.183.06.365-.122.426l-2.8 1.582c0 .061-.06.061-.122.061z" />
    <path
       id="path1109"
       fill="#2C66BF"
       d="M56.79 167.571c-2.313 1.156-5.053 0-5.783-2.496-.548-1.947.426-4.078 2.313-4.869l7.426-3.165 2.252 7.365-6.209 3.165z" />
    <path
       id="path1111"
       fill="#FFAB91"
       d="M86.189 152.354l-2.435-5.296-15.095 6.513 1.947 6.817 15.583-8.034z" />
    <path
       id="path1113"
       fill="#6199F6"
       d="M70.728 160.328l-2.07-6.757-7.912 3.409 2.252 7.365 7.73-4.017z" />
    <path
       id="path1115"
       fill="#2C66BF"
       d="M29.825 166.293l14-11.687-4.018-5.965-14.79 9.861c-2.009 1.339-2.496 4.017-1.218 5.965 1.4 2.13 4.018 3.408 6.026 1.826z" />
    <path
       id="path1117"
       fill="#2C66BF"
       d="M31.043 114.738c-.122-3.47-3.166-6.209-6.879-6.087-3.165.122-6.452.913-7 4.504-.121.852-.182 3.287-.121 4.2l5.965 44.981c.243 2.252 2.313 3.957 4.748 3.896 2.556-.061 4.565-2.07 4.504-4.504l-1.217-46.99z" />
    <path
       id="path1119"
       fill="#FFAB91"
       d="M83.632 147.119l3.165 6.391a2.919 2.919 0 002.496 1.644l-4.322-8.704-1.339.669z" />
    <path
       id="path1121"
       fill="#6D4C41"
       d="M86.919 152.171c.243.487.122.913-.183 1.218l.061.121a2.919 2.919 0 002.496 1.644l-4.322-8.704-.67.365 2.618 5.356z" />
    <path
       id="path1123"
       fill="#2C66BF"
       d="M18.99 104.512s-.73 2.009-1.582 6.391c0 0-.365 2.191-.304 6.452l31.773 4.2s-1.157-6.878-6.574-15.765l-23.312-1.278z" />
    <path
       id="path1125"
       fill="#6199F6"
       d="M42.547 155.641l-4.81-5.661-4.26 2.861 4.444 6.634 4.626-3.834z" />
    <path
       id="path1127"
       fill="#FFC107"
       d="M9.191 35.853l-6.574 1.279.852 2.982 6.209-1.522-.487-2.739z" />
    <path
       id="path1129"
       fill="#FFAB91"
       d="M42.547 155.641l18.808-14.365-3.47-4.504-20.147 13.269 4.809 5.6z" />
    <path
       id="path1131"
       fill="#2C66BF"
       d="M48.694 120.946c-.791-2.8-7.121-9.617-9.982-9.191-3.652.548-9.617.913-8.34 4.322l20.635 48.998c.67 1.826 2.556 2.922 4.504 2.618 2.435-.366 4.017-2.8 3.287-5.174l-10.104-41.573z" />

  </g>

</svg>
